<?xml version="1.0" standalone="no"?>
<!DOCTYPE svg PUBLIC "-//W3C//DTD SVG 20010904//EN"
 "http://www.w3.org/TR/2001/REC-SVG-20010904/DTD/svg10.dtd">
<svg version="1.0" xmlns="http://www.w3.org/2000/svg"
 width="320.000000pt" height="320.000000pt" viewBox="0 0 320.000000 320.000000"
 preserveAspectRatio="xMidYMid meet">

<g transform="translate(0.000000,320.000000) scale(0.100000,-0.100000)"
fill="#000000" stroke="none">
<path d="M0 1600 l0 -1600 1600 0 1600 0 0 1600 0 1600 -1600 0 -1600 0 0
-1600z m2338 3 c2 -608 1 -643 -15 -643 -10 0 -86 -2 -169 -4 -83 -2 -156 -1
-162 3 -8 5 -12 91 -14 293 l-3 285 -147 -286 -146 -286 -181 -3 -181 -2 0
282 c0 158 -4 278 -9 272 -4 -5 -70 -130 -146 -279 -76 -148 -139 -271 -140
-273 -5 -6 -355 -3 -356 3 0 3 61 126 137 273 75 147 198 386 272 532 75 146
159 310 188 365 l53 100 180 3 181 2 0 -292 0 -293 150 290 149 290 133 6 c73
3 153 5 178 5 l45 -1 3 -642z"/>
</g>
</svg>
